[Header]
FileType HTR
DataType HTRS
FileVersion 1
NumSegments 64
NumFrames 3
DataFrameRate 24
EulerRotationOrder ZYX
CalibrationUnits mm
RotationUnits Degrees
GlobalAxisofGravity Y
BoneLengthAxis Y
ScaleFactor 1.0
[SegmentNames&Hierarchy]
Hips	GLOBAL
Spine	Hips
Spine1	Spine
Spine2	Spine1
Neck	Spine2
Head	Neck
LeftEye	Head
RightEye	Head
LeftShoulder	Spine2
LeftArm	LeftShoulder
LeftForeArm	LeftArm
LeftHand	LeftForeArm
LeftHandThumb1	LeftHand
LeftHandThumb2	LeftHandThumb1
LeftHandThumb3	LeftHandThumb2
LeftHandThumb4	LeftHandThumb3
LeftHandIndex1	LeftHand
LeftHandIndex2	LeftHandIndex1
LeftHandIndex3	LeftHandIndex2
LeftHandIndex4	LeftHandIndex3
LeftHandMiddle1	LeftHand
LeftHandMiddle2	LeftHandMiddle1
LeftHandMiddle3	LeftHandMiddle2
LeftHandMiddle4	LeftHandMiddle3
LeftHandRing1	LeftHand
LeftHandRing2	LeftHandRing1
LeftHandRing3	LeftHandRing2
LeftHandRing4	LeftHandRing3
LeftHandPinky1	LeftHand
LeftHandPinky2	LeftHandPinky1
LeftHandPinky3	LeftHandPinky2
LeftHandPinky4	LeftHandPinky3
RightShoulder	Spine2
RightArm	RightShoulder
RightForeArm	RightArm
RightHand	RightForeArm
RightHandPinky1	RightHand
RightHandPinky2	RightHandPinky1
RightHandPinky3	RightHandPinky2
RightHandPinky4	RightHandPinky3
RightHandRing1	RightHand
RightHandRing2	RightHandRing1
RightHandRing3	RightHandRing2
RightHandRing4	RightHandRing3
RightHandMiddle1	RightHand
RightHandMiddle2	RightHandMiddle1
RightHandMiddle3	RightHandMiddle2
RightHandMiddle4	RightHandMiddle3
RightHandIndex1	RightHand
RightHandIndex2	RightHandIndex1
RightHandIndex3	RightHandIndex2
RightHandIndex4	RightHandIndex3
RightHandThumb1	RightHand
RightHandThumb2	RightHandThumb1
RightHandThumb3	RightHandThumb2
RightHandThumb4	RightHandThumb3
LeftUpLeg	Hips
LeftLeg	LeftUpLeg
LeftFoot	LeftLeg
LeftToeBase	LeftFoot
RightUpLeg	Hips
RightLeg	RightUpLeg
RightFoot	RightLeg
RightToeBase	RightFoot
[BasePosition]
Hips	0	0	0	0	0	0	1
Spine	0	0	0	0	0	0	1
Spine1	0	0	0	0	0	0	1
Spine2	0	0	0	0	0	0	1
Neck	0	0	0	0	0	0	1
Head	0	0	0	0	0	0	1
LeftEye	0	0	0	0	0	0	1
RightEye	0	0	0	0	0	0	1
LeftShoulder	0	0	0	0	0	0	1
LeftArm	0	0	0	0	0	0	1
LeftForeArm	0	0	0	0	0	0	1
LeftHand	0	0	0	0	0	0	1
LeftHandThumb1	0	0	0	0	0	0	1
LeftHandThumb2	0	0	0	0	0	0	1
LeftHandThumb3	0	0	0	0	0	0	1
LeftHandThumb4	0	0	0	0	0	0	1
LeftHandIndex1	0	0	0	0	0	0	1
LeftHandIndex2	0	0	0	0	0	0	1
LeftHandIndex3	0	0	0	0	0	0	1
LeftHandIndex4	0	0	0	0	0	0	1
LeftHandMiddle1	0	0	0	0	0	0	1
LeftHandMiddle2	0	0	0	0	0	0	1
LeftHandMiddle3	0	0	0	0	0	0	1
LeftHandMiddle4	0	0	0	0	0	0	1
LeftHandRing1	0	0	0	0	0	0	1
LeftHandRing2	0	0	0	0	0	0	1
LeftHandRing3	0	0	0	0	0	0	1
LeftHandRing4	0	0	0	0	0	0	1
LeftHandPinky1	0	0	0	0	0	0	1
LeftHandPinky2	0	0	0	0	0	0	1
LeftHandPinky3	0	0	0	0	0	0	1
LeftHandPinky4	0	0	0	0	0	0	1
RightShoulder	0	0	0	0	0	0	1
RightArm	0	0	0	0	0	0	1
RightForeArm	0	0	0	0	0	0	1
RightHand	0	0	0	0	0	0	1
RightHandPinky1	0	0	0	0	0	0	1
RightHandPinky2	0	0	0	0	0	0	1
RightHandPinky3	0	0	0	0	0	0	1
RightHandPinky4	0	0	0	0	0	0	1
RightHandRing1	0	0	0	0	0	0	1
RightHandRing2	0	0	0	0	0	0	1
RightHandRing3	0	0	0	0	0	0	1
RightHandRing4	0	0	0	0	0	0	1
RightHandMiddle1	0	0	0	0	0	0	1
RightHandMiddle2	0	0	0	0	0	0	1
RightHandMiddle3	0	0	0	0	0	0	1
RightHandMiddle4	0	0	0	0	0	0	1
RightHandIndex1	0	0	0	0	0	0	1
RightHandIndex2	0	0	0	0	0	0	1
RightHandIndex3	0	0	0	0	0	0	1
RightHandIndex4	0	0	0	0	0	0	1
RightHandThumb1	0	0	0	0	0	0	1
RightHandThumb2	0	0	0	0	0	0	1
RightHandThumb3	0	0	0	0	0	0	1
RightHandThumb4	0	0	0	0	0	0	1
LeftUpLeg	0	0	0	0	0	0	1
LeftLeg	0	0	0	0	0	0	1
LeftFoot	0	0	0	0	0	0	1
LeftToeBase	0	0	0	0	0	0	1
RightUpLeg	0	0	0	0	0	0	1
RightLeg	0	0	0	0	0	0	1
RightFoot	0	0	0	0	0	0	1
RightToeBase	0	0	0	0	0	0	1
[Hips]
15	1170.417114	1020.45929	-38.32538223	21.58996964	83.22123718	21.11341095	1.0
16	1254.417969	1005.731812	-33.69425201	31.54319572	85.55635834	30.44931412	1.0
17	1341.238525	989.2102051	-29.25113297	56.64751053	87.1051178	55.18063354	1.0
[Spine]
15	0	101.8159943	1.315000057	3.719214678	-9.322394371	-1.043864369	1.0
16	0	101.8159943	1.315000057	3.639176369	-10.9529953	-1.516500473	1.0
17	0	101.8159943	1.315000057	3.470829964	-12.12349033	-1.50825417	1.0
[Spine1]
15	0	100.8349991	-10.00800037	1.307604432	-16.09784698	1.590614319	1.0
16	0	100.8349991	-10.00800037	1.075561881	-16.59358978	1.624363422	1.0
17	0	100.8349991	-10.00800037	0.8640828133	-16.94282913	1.639309525	1.0
[Spine2]
15	0	91	-13.73399925	1.058658481	-16.05604172	1.943317652	1.0
16	0	91	-13.73399925	0.8231369257	-16.55346107	1.986386061	1.0
17	0	91	-13.73399925	0.6089783907	-16.90257263	2.010250568	1.0
[Neck]
15	0	166.7169952	-25.16200066	4.66813755	-5.026506424	-0.5861801505	1.0
16	0	166.7169952	-25.16200066	4.202160835	-4.94508028	-0.2868238986	1.0
17	0	166.7169952	-25.16200066	3.702131748	-4.877477646	-0.260466665	1.0
[Head]
15	0	96.17900085	16.84999847	-14.97693348	-35.77618408	8.608110428	1.0
16	0	96.17900085	16.84999847	-15.67493916	-35.69004059	9.577414513	1.0
17	0	96.17900085	16.84999847	-15.65788651	-35.73312378	9.68337822	1.0
[LeftEye]
15	30.6760006	64.09500122	92.83599854	0	0	0	1.0
16	30.6760006	64.09500122	92.83599854	0	0	0	1.0
17	30.6760006	64.09500122	92.83599854	0	0	0	1.0
[RightEye]
15	-30.6760006	64.09500122	92.83499908	0	0	0	1.0
16	-30.6760006	64.09500122	92.83499908	0	0	0	1.0
17	-30.6760006	64.09500122	92.83499908	0	0	0	1.0
[LeftShoulder]
15	45.70400238	109.4599991	-26.28000069	7.258855343	-21.40603447	-18.18000221	1.0
16	45.70400238	109.4599991	-26.28000069	7.41300869	-23.57351875	-17.59884453	1.0
17	45.70400238	109.4599991	-26.28000069	7.493384838	-24.68685532	-17.34025383	1.0
[LeftArm]
15	105.923996	-5.24600029	-22.32099915	5.473892689	-6.575057983	-56.54593658	1.0
16	105.923996	-5.24600029	-22.32099915	11.79942799	-10.64406776	-51.26309204	1.0
17	105.923996	-5.24600029	-22.32099915	14.56200218	-13.75546646	-46.26914215	1.0
[LeftForeArm]
15	278.414978	-0.0009999999311	0	3.820793211e-07	-8.398209572	-0.0002043417044	1.0
16	278.414978	-0.0009999999311	0	1.993478463e-06	-13.8309021	-0.0002214030246	1.0
17	278.414978	-0.0009999999311	0	2.062977956e-06	-18.65789032	-0.0002015820355	1.0
[LeftHand]
15	283.2879944	0	0	20.94400978	6.050971508	-24.65097046	1.0
16	283.2879944	0	0	16.91588211	2.358723402	-25.2672596	1.0
17	283.2879944	0	0	16.00054169	-1.243976474	-23.49150467	1.0
[LeftHandThumb1]
15	24.6609993	-15.75	26.8239994	9.109765053	4.957850933	2.770922184	1.0
16	24.6609993	-15.75	26.8239994	8.844631195	4.378437042	2.47519803	1.0
17	24.6609993	-15.75	26.8239994	8.547739029	3.716776133	2.143288136	1.0
[LeftHandThumb2]
15	32.29800034	-18.64699936	18.64699936	4.650310516	25.28272247	15.90477657	1.0
16	32.29800034	-18.64699936	18.64699936	4.974400043	23.37440109	15.35316467	1.0
17	32.29800034	-18.64699936	18.64699936	4.658714771	22.11661339	14.34831047	1.0
[LeftHandThumb3]
15	26.52600098	-15.31499958	15.31499958	5.309642315	13.25731087	2.09601903	1.0
16	26.52600098	-15.31499958	15.31499958	4.992649078	12.84265614	1.759688258	1.0
17	26.52600098	-15.31499958	15.31499958	4.645499706	12.53868961	1.366728663	1.0
[LeftHandThumb4]
15	19.54599953	-11.28499985	11.28499985	0	0	0	1.0
16	19.54599953	-11.28499985	11.28499985	0	0	0	1.0
17	19.54599953	-11.28499985	11.28499985	0	0	0	1.0
[LeftHandIndex1]
15	91.09299469	-5.170999527	22.60099792	-0.5149582028	2.595397234	-14.99799728	1.0
16	91.09299469	-5.170999527	22.60099792	-0.6200455427	2.607341051	-15.48342133	1.0
17	91.09299469	-5.170999527	22.60099792	-0.837036252	2.649543285	-16.8085022	1.0
[LeftHandIndex2]
15	36.76399994	0	0	-0.3249224126	2.114907265	-13.46551991	1.0
16	36.76399994	0	0	-0.3010684848	2.052592754	-12.80953217	1.0
17	36.76399994	0	0	-0.27420187	1.978805423	-12.03773689	1.0
[LeftHandIndex3]
15	28.83100128	0	0	-0.2036759108	1.234372616	-14.53743553	1.0
16	28.83100128	0	0	-0.1875831187	1.170825601	-13.8855505	1.0
17	28.83100128	0	0	-0.1697697639	1.095316887	-13.11390018	1.0
[LeftHandIndex4]
15	23.92700005	0	0	0	0	0	1.0
16	23.92700005	0	0	0	0	0	1.0
17	23.92700005	0	0	0	0	0	1.0
[LeftHandMiddle1]
15	95.33399963	0	0	-3.376557827	7.936120033	-30.46910858	1.0
16	95.33399963	0	0	-3.391041994	7.801248074	-30.58829498	1.0
17	95.33399963	0	0	-3.465510607	7.492956161	-31.16800308	1.0
[LeftHandMiddle2]
15	36.98199844	0	0	-0.6543795466	2.768984079	-20.47226906	1.0
16	36.98199844	0	0	-0.622988224	2.71331954	-19.84116173	1.0
17	36.98199844	0	0	-0.5896080732	2.651978493	-19.15159988	1.0
[LeftHandMiddle3]
15	29.50900078	0	0	-0.2126497626	1.729149342	-14.794487	1.0
16	29.50900078	0	0	-0.195933193	1.669263482	-14.1695528	1.0
17	29.50900078	0	0	-0.1784676015	1.602835417	-13.47923374	1.0
[LeftHandMiddle4]
15	28.3390007	0	0	0	0	0	1.0
16	28.3390007	0	0	0	0	0	1.0
17	28.3390007	0	0	0	0	0	1.0
[LeftHandRing1]
15	91.04499817	-0.4390000105	-18.65100098	-5.009699345	13.76111031	-40.8064537	1.0
16	91.04499817	-0.4390000105	-18.65100098	-4.970172405	13.64228153	-40.56631088	1.0
17	91.04499817	-0.4390000105	-18.65100098	-4.984035015	13.38345909	-40.7587738	1.0
[LeftHandRing2]
15	31.54000092	0	0	-0.3704883158	2.595613241	-23.18825912	1.0
16	31.54000092	0	0	-0.3513913453	2.54515624	-22.64387894	1.0
17	31.54000092	0	0	-0.3313920796	2.490167856	-22.05332756	1.0
[LeftHandRing3]
15	29.37700081	0	0	-0.09752125293	1.924860835	-19.56005859	1.0
16	29.37700081	0	0	-0.0852996707	1.874608636	-19.04042053	1.0
17	29.37700081	0	0	-0.07230712473	1.818028212	-18.45723343	1.0
[LeftHandRing4]
15	26.47500038	0	0	0	0	0	1.0
16	26.47500038	0	0	0	0	0	1.0
17	26.47500038	0	0	0	0	0	1.0
[LeftHandPinky1]
15	80.77799988	-4.887000084	-38.06099701	-7.322556973	16.47943878	-46.51730728	1.0
16	80.77799988	-4.887000084	-38.06099701	-7.171355247	16.35851479	-46.30644989	1.0
17	80.77799988	-4.887000084	-38.06099701	-7.03853941	16.10433578	-46.43917847	1.0
[LeftHandPinky2]
15	36	0	0	-1.009178519	2.76917696	-31.54222679	1.0
16	36	0	0	-0.9730863571	2.71642518	-30.90219498	1.0
17	36	0	0	-0.9295665026	2.650458097	-30.11099815	1.0
[LeftHandPinky3]
15	21.14200211	0	0	-0.4142426848	2.541741371	-17.33901405	1.0
16	21.14200211	0	0	-0.3902820051	2.482249737	-16.69893456	1.0
17	21.14200211	0	0	-0.3619482517	2.408333778	-15.90877151	1.0
[LeftHandPinky4]
15	19.75699997	0	0	0	0	0	1.0
16	19.75699997	0	0	0	0	0	1.0
17	19.75699997	0	0	0	0	0	1.0
[RightShoulder]
15	-45.70000076	109.4620056	-26.28000069	4.12099123	2.036487818	10.9816103	1.0
16	-45.70000076	109.4620056	-26.28000069	3.907312393	-0.7454373837	12.28455353	1.0
17	-45.70000076	109.4620056	-26.28000069	3.630989075	-3.313898802	12.37709236	1.0
[RightArm]
15	-105.9280014	-5.248000145	-22.32099915	12.9519558	7.319162846	64.44443512	1.0
16	-105.9280014	-5.248000145	-22.32099915	13.53589439	-0.09701488167	63.34279251	1.0
17	-105.9280014	-5.248000145	-22.32099915	16.23655701	-7.390557766	62.74422073	1.0
[RightForeArm]
15	-278.414978	0	0	-1.547077204e-06	13.89016056	-1.017598265e-06	1.0
16	-278.414978	0	0	-1.263027843e-05	16.18976784	3.033434837e-07	1.0
17	-278.414978	0	0	-7.251571787e-06	18.69503403	6.263227533e-06	1.0
[RightHand]
15	-283.2879944	0	0.0009999999311	43.90185547	20.23145866	-8.437086105	1.0
16	-283.2879944	0	0.0009999999311	49.0464592	13.24826145	-3.761392355	1.0
17	-283.2879944	0	0.0009999999311	42.64692688	7.818498611	-2.149060965	1.0
[RightHandPinky1]
15	-80.76699829	-4.885000229	-38.06000137	-2.823311329	-16.28862572	22.5164032	1.0
16	-80.76699829	-4.885000229	-38.06000137	-3.889667988	-16.26981926	28.70234871	1.0
17	-80.76699829	-4.885000229	-38.06000137	-4.765213966	-16.30948257	33.59581757	1.0
[RightHandPinky2]
15	-36	0	0.0009999999311	-0.179888472	-0.9658267498	11.60457516	1.0
16	-36	0	0.0009999999311	-0.3438428044	-1.487385392	17.07215691	1.0
17	-36	0	0.0009999999311	-0.5269111395	-1.906318307	21.6517601	1.0
[RightHandPinky3]
15	-21.14200211	0	0	-0.1528129578	2.250669718	-0.7431259155	1.0
16	-21.14200211	0	0	-0.216679737	1.717650652	4.607980251	1.0
17	-21.14200211	0	0	-0.3179784417	1.275252104	9.135910034	1.0
[RightHandPinky4]
15	-19.75699997	0	0	0	0	0	1.0
16	-19.75699997	0	0	0	0	0	1.0
17	-19.75699997	0	0	0	0	0	1.0
[RightHandRing1]
15	-91.03599548	-0.4390000105	-18.65100098	-1.774099946	-12.93390369	16.42058945	1.0
16	-91.03599548	-0.4390000105	-18.65100098	-2.437138081	-13.23038387	21.74902725	1.0
17	-91.03599548	-0.4390000105	-18.65100098	-2.991974354	-13.41934872	26.00373459	1.0
[RightHandRing2]
15	-31.54000092	0	0	-0.0226506032	-1.135024905	8.002212524	1.0
16	-31.54000092	0	0	-0.07565142214	-1.523357391	11.95454216	1.0
17	-31.54000092	0	0	-0.1447884887	-1.842904329	15.2542572	1.0
[RightHandRing3]
15	-29.37700081	0	0	-0.03309836611	1.806213975	0.4844187796	1.0
16	-29.37700081	0	0	-0.01011225022	1.330262303	5.271358013	1.0
17	-29.37700081	0	0	-0.02847344801	0.9305815101	9.293192863	1.0
[RightHandRing4]
15	-26.47500038	0	0	0	0	0	1.0
16	-26.47500038	0	0	0	0	0	1.0
17	-26.47500038	0	0	0	0	0	1.0
[RightHandMiddle1]
15	-95.32500458	0	0	-0.5752879381	-6.109991074	7.820057392	1.0
16	-95.32500458	0	0	-1.091870546	-6.395197868	12.42586803	1.0
17	-95.32500458	0	0	-1.501734614	-6.687047958	15.86839867	1.0
[RightHandMiddle2]
15	-36.98199844	0	0	-0.110434711	-1.473233461	6.571639061	1.0
16	-36.98199844	0	0	-0.2127351761	-1.797809482	9.929162025	1.0
17	-36.98199844	0	0	-0.3154096603	-2.061692953	12.7246294	1.0
[RightHandMiddle3]
15	-29.50900078	0	0	-0.01806029677	-0.409979105	2.909650564	1.0
16	-29.50900078	0	0	-0.05872651935	-0.7982016206	6.831779957	1.0
17	-29.50900078	0	0	-0.1174125373	-1.118574381	10.10682011	1.0
[RightHandMiddle4]
15	-28.3390007	0	0.0009999999311	0	0	0	1.0
16	-28.3390007	0	0.0009999999311	0	0	0	1.0
17	-28.3390007	0	0.0009999999311	0	0	0	1.0
[RightHandIndex1]
15	-91.08300018	-5.167999744	22.60099792	0.6883972287	-0.9239346385	-1.958402514	1.0
16	-91.08300018	-5.167999744	22.60099792	0.4289045036	-1.163179517	1.77579546	1.0
17	-91.08300018	-5.167999744	22.60099792	0.2063484788	-1.438482761	4.584909439	1.0
[RightHandIndex2]
15	-36.76399994	0	0	-0.05221809447	-1.197445989	4.051277161	1.0
16	-36.76399994	0	0	-0.08952059597	-1.36332345	5.721539021	1.0
17	-36.76399994	0	0	-0.1288468987	-1.5135355	7.247209072	1.0
[RightHandIndex3]
15	-28.83100128	0	0	-0.08871317655	0.7710481882	4.483720779	1.0
16	-28.83100128	0	0	-0.1230464801	0.4493865073	7.700188637	1.0
17	-28.83100128	0	0	-0.1706350297	0.1735422313	10.48448086	1.0
[RightHandIndex4]
15	-23.92700005	0	0	0	0	0	1.0
16	-23.92700005	0	0	0	0	0	1.0
17	-23.92700005	0	0	0	0	0	1.0
[RightHandThumb1]
15	-24.64799881	-15.72700024	26.82600021	9.818787575	-5.083375454	-0.04858393967	1.0
16	-24.64799881	-15.72700024	26.82600021	10.17091846	-4.481915951	0.7227944732	1.0
17	-24.64799881	-15.72700024	26.82600021	10.25861549	-4.15054512	1.04149127	1.0
[RightHandThumb2]
15	-32.29800034	-18.64699936	18.64699936	3.385462284	-12.36355019	-12.58722687	1.0
16	-32.29800034	-18.64699936	18.64699936	2.708419085	-12.54036808	-12.64167118	1.0
17	-32.29800034	-18.64699936	18.64699936	2.53374958	-12.90176487	-12.61449242	1.0
[RightHandThumb3]
15	-26.52600098	-15.31399918	15.31399918	2.932839394	-12.30570221	0.1251676232	1.0
16	-26.52600098	-15.31399918	15.31399918	2.985943794	-12.46101761	0.1675629467	1.0
17	-26.52600098	-15.31399918	15.31399918	2.985279322	-12.45905495	0.1683209836	1.0
[RightHandThumb4]
15	-19.54599953	-11.28499985	11.28499985	0	0	0	1.0
16	-19.54599953	-11.28499985	11.28499985	0	0	0	1.0
17	-19.54599953	-11.28499985	11.28499985	0	0	0	1.0
[LeftUpLeg]
15	82.07800293	-67.51699829	-15.99599934	4.625641823	9.917038918	-5.633443832	1.0
16	82.07800293	-67.51699829	-15.99599934	10.35858822	12.73387909	-2.732065678	1.0
17	82.07800293	-67.51699829	-15.99599934	15.79910278	14.06430721	-0.4296057224	1.0
[LeftLeg]
15	0	-443.7049866	2.845999956	6.13964653	-2.845701933	-1.405883551	1.0
16	0	-443.7049866	2.845999956	5.260002136	-6.295982361	-3.269277334	1.0
17	0	-443.7049866	2.845999956	4.573495865	-6.892364025	-2.592670202	1.0
[LeftFoot]
15	0	-444.2789917	-29.8219986	-11.48272514	1.641394138	4.922652245	1.0
16	0	-444.2789917	-29.8219986	-14.9274559	0.07700930536	5.227433681	1.0
17	0	-444.2789917	-29.8219986	-14.84478188	-2.248339653	4.233506203	1.0
[LeftToeBase]
15	0	-87.28699493	107.1060028	-2.746745586	-1.035487458e-05	-2.26149632e-06	1.0
16	0	-87.28699493	107.1060028	-3.935322523	8.091285054e-06	4.038920906e-06	1.0
17	0	-87.28699493	107.1060028	-9.978569031	-0.08725186437	-0.2028183639	1.0
[RightUpLeg]
15	-82.07800293	-67.51699829	-15.99599934	-27.45123672	2.814973354	2.915071487	1.0
16	-82.07800293	-67.51699829	-15.99599934	-31.84672928	2.030460596	3.168191195	1.0
17	-82.07800293	-67.51699829	-15.99599934	-35.09287643	1.110277653	3.724217415	1.0
[RightLeg]
15	0	-443.7049866	2.861999989	38.26391983	-2.473187447	-9.984620094	1.0
16	0	-443.7049866	2.861999989	26.04641914	-3.653410435	-7.435642242	1.0
17	0	-443.7049866	2.861999989	20.43672943	-3.484832287	-5.556872368	1.0
[RightFoot]
15	0	-444.2770081	-29.83799934	0.1972543895	-18.61104202	-2.232162476	1.0
16	0	-444.2770081	-29.83799934	-4.758038998	-16.04020309	1.358256936	1.0
17	0	-444.2770081	-29.83799934	-8.527023315	-11.24394798	5.216321945	1.0
[RightToeBase]
15	0	-87.28699493	107.1060028	1.066961169	1.567925756e-05	1.973339067e-06	1.0
16	0	-87.28699493	107.1060028	0.6317801476	-1.679864545e-05	-3.029302434e-06	1.0
17	0	-87.28699493	107.1060028	-1.235782862	-2.904117355e-05	-1.578109959e-06	1.0
[EndOfFile]
